<?xml version="1.0" encoding="UTF-8" standalone="no"?>
<!-- Created with Inkscape (http://www.inkscape.org/) -->
<svg xmlns:rdf="http://www.w3.org/1999/02/22-rdf-syntax-ns#" xmlns="http://www.w3.org/2000/svg" xml:space="preserve" height="647.31" viewBox="0 0 647.30664 647.30664" width="647.31" version="1.1" xmlns:cc="http://creativecommons.org/ns#" xmlns:dc="http://purl.org/dc/elements/1.1/"><metadata><rdf:RDF><cc:Work rdf:about=""><dc:format>image/svg+xml</dc:format><dc:type rdf:resource="http://purl.org/dc/dcmitype/StillImage"/><dc:title/></cc:Work></rdf:RDF></metadata><g transform="matrix(1.3333 0 0 -1.3333 0 647.31)"><g transform="scale(.1)"><path d="m4709.8 2427.4c0-1260.5-1021.9-2282.4-2282.4-2282.4s-2282.4 1021.9-2282.4 2282.4 1021.9 2282.4 2282.4 2282.4 2282.4-1021.9 2282.4-2282.4" fill="#231f20"/><path d="m4709.8 2427.4c0-1260.5-1021.9-2282.4-2282.4-2282.4s-2282.4 1021.9-2282.4 2282.4 1021.9 2282.4 2282.4 2282.4 2282.4-1021.9 2282.4-2282.4z" stroke="#231f20" stroke-width="290" fill="none"/><path d="m4117.5 2430.5c0-933.42-756.68-1690.1-1690.1-1690.1-933.41 0-1690.1 756.68-1690.1 1690.1 0 933.41 756.68 1690.1 1690.1 1690.1s1690.1-756.68 1690.1-1690.1" fill="#fff"/><path d="m4117.5 2430.5c0-933.42-756.68-1690.1-1690.1-1690.1-933.41 0-1690.1 756.68-1690.1 1690.1 0 933.41 756.68 1690.1 1690.1 1690.1s1690.1-756.68 1690.1-1690.1z" stroke="#fff" stroke-width="80" fill="none"/><path d="m3815.3 2073.8c-10.17 16.36-20.17 23.33-20.28 22.65-0.12-0.67 11.69 28.7-1.67 42.6-22.32 23.28-42.3 28.13-73.67 63.37-29.88 3.78-33.72 17.63-79.14 15.75-45.41-1.85-49.24-35.84-67.87-75.67 3.8-0.66-32.39-67.04-33.71-74.64-0.66-3.81-48.66-76.91-78.17-107.2-29.51-30.28-75.14-64.01-78.92-63.36-21.64-11.92-64.04-33.34-75.38-30.68-11.32 2.65 7.95 17.85 9.26 25.46 2.24 12.91 9.3 13.65 5.55 24-3.77 10.37-10.14 14.24-32.95 18.19 0 0-51.17 3.98-70.18 7.26-7.59 1.32-65.32 7.38-64.66 11.17-27.68-2.05-27.5 5.45-36.94 7.07-9.42 1.64-40.95 13.58-55.51 20-13.93-0.37-52.67-0.31-80.45 20.15-17.03 14.68-64.08 34.66-78.55 39.24-14.46 4.58-35.49 3.35-50.19-13.53-14.71-16.87-42.54-50.07-76.23-63.82-8.27-2.49-56.92-35.81-83.01-50.86 0 0-24.05-11.82-31.64-10.49-3.81 0.64-10.78 1.86-9.24 14.76 1.52 12.92 51.53 69.5 47.64 75.02-3.9 5.53-52.84-20.7-70.42-30.15-17.59-9.45-53.39-22.23-69.25-23.41-3.79 0.66-45.27 2.97-57.5 4.38-12.25 1.43-16.66-4.06-22.42 10.81-5.76 14.88 3.27 16.64 10.93 21.98s95.14 49.89 91.46 56.75c-3.66 6.89-58.92-7.85-69.96-11.49s-43.57-11.21-53.92-14.96c-10.37-3.77-91.74-25.08-91.74-25.08s-45.97-9.16-45.31-5.35c-4.46-3.15-36.55-2.72-51.58 2.66-15.02 5.37-19.59 11.02-25.14 23.07-5.55 12.06 3.71 37.51 28.77 58.16 25.07 20.64 35.7 36.79 43.8 44.09 8.1 7.29 20.52 19.01 15.27 24.79-5.24 5.75-23.51-3.57-42.12-14.92-18.59-11.37-64.9-50.53-103.36-72.32-38.45-21.8-152.52-33.53-201.28-21.19-55.69 17.46-102.21 27.14-140.38 35.11-38.15 7.99-98.48 6.14-126.41 3.12-8.25-2.48-51.31-11.95-66.73-16.91-15.43-4.96-47.25-8.49-67.48-9.15-20.23-0.67-84.39-5.79-119.25-3.68-27.26 0.8-58.47 14.96-68.6 12.55-10.12-2.41-24.92-16.77-37.63-22.39-11.46 1.97-53.78 2.27-72.92 0.86-0.66-3.81-23.2-5.55-35.26-7.39 3.81-0.66-3.17 7.17-17.74 0.67-14.56-6.51-14.52-1.72-22.38 0.02-7.84 1.74-21.69-3.93-29.3-2.63-0.07-0.44-0.58-0.49-0.54-0.79 2.95-30.61-2.54 0.8-4.62 2.25-3.18 2.21-7.26 5.28-10.56 5.48-3.81 0.23-8.74-1.91-11.97-3.57-2.02-1.04 2.02-17.85-0.3-20.06-2.34-2.21-5.29 19.28-6.38 19.73-9.35 3.88-17.58 2.57-24.98 0.34-3.74-0.57-6.47-1.83-8.43-3.5-8.44-7.27 6.3-21.54 0.53-22.83-5.75-1.3-4.55 15.14-6.55 16.79-2 1.64-5.98-2.89-9.78-2.23 2.49-8.26 7.83-20.49 3.49-24.74-4.34-4.24-4.98 16.52-7.46 24.78-16.52-4.98-24.11 2.03-37.12 7.06-13 5.02-23.97 13.86-37.12 14.04-13.14 0.2-21.951-6.61-19.998-19.43 1.938-12.82 9.628-26.84 6.538-33.49-3.08-6.66-23.854 20.47-33.428 10.4-5.11-6.96-20.172-28.44-3.164-42.47 16.996-14.04 28.671-14.66 41.212-22.38 12.54-7.72 34.41-13.57 46.14-26.01 11.73-12.43 38.97-43.5 57.33-73.72 18.36-30.23 117.37-87.57 160.13-133.12 42.78-45.53 71.48-76.17 115.91-87.99 44.42-11.84 113.89-27.32 93.92-22.48-19.97 4.85 61.71-16.21 81.34-23.06 19.63-6.86 66.28-21.86 93.06-35.5 26.77-13.67 36.77-16.08 25.45-29.38-11.31-13.31-36.52-18.68-50.84-25.21-14.31-6.54-70.58-25.11-100.47-39.51-0.66-3.81-29.98-12.67-42.69-18.31-16.52-4.97-65.24-28.27-61.69-35.81 3.55-7.55 89.2 14.41 78.28 11.45-10.91-2.97 93.76 24.73 93.76 24.73s101.49 29.39 86.71 24.08c-14.79-5.29 29.23 10.61 45.09 11.79 7.6-1.3 29.19 12.37 39.94 6.59 11.22-6.02 18.9-15.04 59.74-27.66 40.82-12.6 111.23-24.07 115.03-24.73 27.26-0.8 61.44-5.75 82.04-19.02 20.59-13.27 153.91-100.82 153.91-100.82s129.48-93.83 132.42-88.79c8.65 14.78-174.93 160.81-165.48 178.43 4 7.45 44.74 2 74.46-6.61 29.73-8.62 90.38-14.92 132.52-15.97 56.03-1.38 103.52 5.01 129.85 8.78 26.32 3.79 122.42 26.02 175.68 45.26s134.86 77.98 168.9 94.29c34.05 16.33 66.55 3.78 85.63-2.28 19.07-6.08 85.86-21.06 69.12-17.48-16.73 3.55 40.3-15.72 42.91-0.51 1.98 11.4-19.2 21.35-13.4 30.76 5.79 9.39 64.67-27.13 122.35-42.64 57.66-15.51 62.44-11.93 63.1-8.12-6.15 32.36-3.41 88.58 1.84 118.98 7.87 45.61 70.96 94.47 70.96 94.47 20.45 27.78 65.79 37.19 74.85 66.94 0.66 3.81-35.67 10.33-30.99 25.47 4.7 15.14 37.33 21.09 58.94 26.83 21.61 5.73 49.03 5.99 71.86 7.45 22.82 1.47 80.57 0.66 133.16-0.1 52.6-0.77 54.35-1.29 126.04 5.9 8.27 2.49 24.77 7.47 24.12 3.66 8.91 6.29 19.48 0.66 50.57 11.94 31.08 11.29 37.94 12.54 60.06 39.4 22.13 26.87 34.63 64.48 25.33 101.3-11.77 45.09-28.01 87.03-52.5 126.51" fill="#231f20"/><g fill="#fff"><path d="m1237.5 1937.2c-5.1-29.52 14.88-57.62 44.64-62.76 29.75-5.13 58.01 14.62 63.1 44.14 5.11 29.52-14.88 57.62-44.63 62.76-29.76 5.13-58.01-14.63-63.11-44.14"/><path d="m3757.1 2078.8c15.96 2.9-30.46 49.51-52.74 40.31-22.3-9.2-60.41-50.75-64.66-67.26-4.28-16.53 28.06 20.93 61.75 30.74 33.68 9.8 39.71-6.68 55.65-3.79"/><path d="m3706.9 1839.8c-10.73 4.09 1.99 18.86 22.59 28.84 20.61 9.97 29.28 11.45 36.15 6.43 6.84-5-10.91-23.69-14.35-27.89s-33.67-11.49-44.39-7.38"/><path d="m3237.1 1906.8c10.25-1.39 0.99-15.69-3.52-20.33-4.49-4.63-43.8-35.24-48.73-33.41-4.92 1.82 14.05 31.76 21.31 40.48 7.27 8.73 20.7 14.64 30.94 13.26"/><path d="m2883.7 1701.5c-5.98 5.93-24.16-6.73-30.71-11.66-6.56-4.9-13.77-18.32-16.13-29.18-2.37-10.84 7.42-19.37 23.73-9.96 16.29 9.42 29.1 44.88 23.11 50.8"/><path d="m2616.2 1903.3c1.46-2.85 5.26-3.51-1.09-6.34-6.37-2.81-8.44 4.08-8.44 4.08l9.53 2.26"/><path d="m2590.7 1922c4.74-2.77 4.19-5.94 3.54-9.75-0.67-3.79-3.63-5.89-5.22-7.57-1.61-1.68-2.21 2.34-3.89 3.93s5.57 13.39 5.57 13.39"/><path d="m2430.8 1966.6c2.31-1.71 10.76-1.86 3.97-7.22-6.8-5.35-11.45-5.84-13.58-6.78-2.12-0.95-12.55 2.82-12.55 2.82l22.16 11.18"/><path d="m2954.7 1600.8c-7.05-10.53 5.46 12.75 24.11 3.66s56.12-33.83 56.12-33.83-31.49-1.08-43.63 0.37c-12.15 1.44-36.6 29.8-36.6 29.8"/><path d="m3053 1596.2c-8.27-1.77 2.32-16.72 14.59-17.54 12.24-0.8 42.99-4.15 42.99-4.15s-20.13 11.95-25.82 12.94c-5.71 0.98-28.38 9.47-31.76 8.75"/><path d="m2899.6 1520.3c-5.17 3.8-13.71 3.67-20.9 3.61s-3.96-7.8 9.02-12 19.83-6.03 25.98-4.47c6.13 1.54-8.3 8.61-14.1 12.86"/><path d="m2233.5 1475.4c6.25-5.93 19.66 0.52 27.92 2.99 12.71 5.64 24.77 7.48 40.63 8.65-38 6.56-73.39 28.33-104.97 49.45-10.74 5.77-12.57 17.83-22.66 27.4-6.95 5.11-15.87-1.17-20.32-4.33-14.02-13.22-24.25-27.11-40.77-32.09-28.57-6.8-57.8-17.41-86.37-24.21 18.85-26.75 54.38-25.06 82.95-18.26 16.51 4.97 37.35-10.36 53.86-5.38 25.43 11.26 49.55 14.92 69.73-4.22"/><path d="m1903 1874.3c-1.59 19.98-6.61 64.47-23.41 44.35-9.57-4.11-11.06-38.4-30.23-46.6-0.97-5.58-2.9-16.78-3.87-22.36 5.73-18.26 22-26.84 35.9-23.48 10.54 9.7 23.01 30.57 21.61 48.09"/><path d="m1819.6 1827.6-0.66-3.8c1.31 7.61-0.52 19.66 4.6 26.6-8.91-6.28-2.63-15.2-3.94-22.8"/><path d="m1702.3 1877.1c-1.56-12.78-18.23-26.2-14.77-32.68 3.44-6.46 37.24 7.92 30 33.96-7.24 26.05-32.36 31.69-36.83 28.53 10.75-5.76 23.17-17.03 21.6-29.81"/><path d="m1574.3 1867.2c1.37-7.59 4.99-16.53 3.02-27.92 7.73 22.14 15.47 44.29 7.35 65.26-4.97 16.51-18.2 30.55-26.98 47.72-2.49 8.25 7.75 22.15 3.94 22.8-6.29 8.92-22.15 7.74-33.55 9.7 8.64-40.62 38.24-73.14 46.22-117.56"/><path d="m1656.6 1731.8c-2.63-15.2 17.03-14.69 28.43-16.64-4.97 16.5-18.87 26.73-24.49 39.45-1.32-7.6-2.63-15.2-3.94-22.81"/><path d="m1755.7 1639c-2.28-3.1-5.12-6.95-5.12-6.95 14.55-6.43 28.58 6.82 27.4 22.68-3.8 0.65-7.6 1.3-6.95 5.11 0.66 3.79 0.66 3.79 1.32 7.59-3.8 0.66-4.46-3.14-5.11-6.94 3.14-4.46 6.94-5.11 2.48-8.25-4.45-3.15-8.92-6.29-14.02-13.24"/><path d="m1681.2 1675.7c-1.97-11.38-14.04-13.22-19.14-20.16 22.8-3.94 39.45 24.49 39.6 47.96-12.06-1.84-18.49-16.38-20.46-27.8"/><path d="m1577.1 1669.9c-1.97-11.4 14.55-6.43 16.37-18.48 1.97 11.39-9.43 13.37-16.37 18.48"/><path d="m1612.3 1624.6c-2.78-16.12 26.46-28.05 43.64-19.28-3.8 0.66-7.61 1.31-12.06-1.83-9.44 13.37-24.64 15.99-34.07 29.38-0.66-3.81 3.15-4.46 2.49-8.27"/><path d="m1838.6 1504.5c19-3.27 35.38-21.78 44.95-11.67 13.37 9.44 5.91 34.19-2.88 51.37-2.48 8.26-17.02 14.69-29.08 12.85-12.06-1.82-14.69-17.03-22.95-19.51-17.16-8.78-27.39-22.66-47.05-23.19 8.78-17.18 32.24-17.3 46.26-4.08 4.46 3.15 6.95-5.1 10.75-5.77"/><path d="m1943.4 1513.8c-17.92 16.99-38.52 26.23-54.9 44.71 0.65 3.81 1.97 11.4 5.77 10.74 39.19-22.42 74.56-44.19 95.26-82.99 3.79-0.66-11.4 1.96-15.21 2.63-9.43 13.37-20.82 15.34-30.92 24.91"/><path d="m1912.9 1619.7c2.29 3.09 22.14-7.76 17.03-14.7s-22.14 7.74-17.03 14.7"/><path d="m1518.2 1895.3c-0.65-3.8 6.95-5.12 10.75-5.76 4.46 3.14-2.48 8.25-5.63 12.7-0.66-3.79-4.45-3.13-5.12-6.94"/><path d="m1525.1 1890.2c4.46 3.15 1.97 11.41-1.83 12.06-3.8 0.66-4.45-3.13-5.12-6.94 3.81-0.66 3.15-4.45 6.95-5.12"/><path d="m1526.5 1897.8-3.15 4.45c-3.8 0.66-4.45-3.13-5.12-6.94 3.15-4.45 6.95-5.12 10.75-5.76 0.66 3.79-3.14 4.45-2.48 8.25"/><path d="m1477.7 1910.2c-8.51 1.46-1.98-11.41-6.44-14.55 4.46 3.14 16.52 4.98 14.03 13.24 0 0-3.8 0.64-7.59 1.31"/><path d="m1447 1922.4c35.95-32.98 42.22-125.87-26.89-103.95 27.24-98.93-6.5-38.4-13.44-33.29-1.97-11.4-10.1-24.6-12.07-36.01-6.43-14.54-11.34 26.13-26.54 28.77-0.66-3.81-7.47-40.47-11.27-39.8-3.8 0.64-19.64 42.59-23.43 43.24-0.65-3.81-14.12-49.96-17.91-49.3-22.81 3.94-29.97 21.86-36.92 42.71-9.88-14.95-65.62-20.44-45.38-27.86 122.4-65.36 213.04-34.18 254.38 72.89 41.33 107.07-24.54 177.94-24.54 177.94s30.93-87.91-15.99-75.34"/><path d="m1503 1696c27.67-4.77 17.97 36.05 25.05 54.39-15.99-24.63-50.85-22.52-72.49-34.45 12.58-17.82 28.43-16.65 47.44-19.94"/><path d="m1442.8 1685.3c3.8-0.66 3.8-0.66 7.6-1.31-7.6 1.31-10.08 9.57-19 3.29 3.8-0.66 7.6-1.32 11.4-1.98"/><path d="m1385.6 1671.6c-3.15 4.46-10.09 9.58-17.69 10.89 2.48-8.26 15.19-2.63 17.69-10.89"/><path d="m1188.4 1889.7c-4.46-3.13-12.06-1.82-16.52-4.96 20.18-19.14 47.45-19.94 70.24-23.89-11.92 21.63-31.44 44.57-53.72 28.85"/><path d="m1211 1952.3c1.58-5.22-5.77-10.74 2.49-8.26 8.92 6.29 3.94 22.81 16.65 28.44-6.95 5.12-15.85-1.17-22.8 3.94-5.11-6.95 1.18-15.86 3.66-24.12"/><path d="m1302.4 1960c3.8-0.65 8.91 6.29 15.87 1.18-7.6 1.31-15.21 2.63-24.12-3.66 3.8-0.66 4.45 3.13 8.25 2.48"/><path d="m1405.8 1969.6c-0.66-3.8-1.97-11.41 5.63-12.71-6.29 8.91 7.09 18.35-3.66 24.12-5.11-6.95-10.75 5.76-11.4 1.97-0.66-3.81 10.74-5.78 9.43-13.38"/><path d="m3791.9 1968.6c13.96 0.79-13.18 49.31-33.93 43.45-20.74-5.87-62.55-39.73-70.13-54.48-7.59-14.74 28.42 16.02 58.79 21.1 30.36 5.08 31.31-10.86 45.27-10.07"/><path d="m3773 2023.8c13.88 1.5-6.9 49.67-28.12 42.65-21.23-7.03-66.73-43.65-76.04-59.07-9.33-15.44 30.06 17.76 60.68 24.45 30.63 6.7 29.61-9.53 43.48-8.03"/><path d="m2837.1 1972c10.24-1.38 1-15.66-3.52-20.31-4.51-4.64-43.81-35.23-48.74-33.42-4.92 1.82 14.06 31.76 21.32 40.49 7.27 8.71 20.69 14.63 30.94 13.24"/><path d="m3165.3 1867.4c10.24-1.38 1-15.66-3.51-20.32-4.51-4.63-43.81-35.23-48.74-33.41-4.93 1.83 14.05 31.76 21.32 40.48 7.26 8.73 20.68 14.63 30.93 13.25"/><path d="m2957.3 1868.9c10.23-1.38 0.99-15.66-3.52-20.31-4.51-4.64-43.81-35.25-48.73-33.41-4.92 1.81 14.04 31.75 21.31 40.47 7.26 8.73 20.68 14.62 30.94 13.25"/><path d="m3016 1884.5c9.22-1.23 0.91-14.1-3.16-18.28-4.06-4.18-39.43-31.72-43.86-30.08-4.44 1.64 12.65 28.59 19.18 36.43 6.54 7.85 18.62 13.17 27.84 11.93"/><path d="m3086.6 1812.3c9.22-1.24 0.9-14.11-3.16-18.29-4.07-4.18-39.43-31.71-43.87-30.07-4.43 1.64 12.66 28.57 19.19 36.43 6.53 7.84 18.62 13.18 27.84 11.93"/><path d="m3158.3 1811.6c9.22-1.25 0.9-14.1-3.15-18.28-4.07-4.18-39.44-31.72-43.87-30.08-4.42 1.63 12.65 28.6 19.19 36.43 6.52 7.85 18.6 13.17 27.83 11.93"/><path d="m2760.8 1762c-6.51 8.32-28.01-11.23-35.78-18.77s-16.8-27.58-20.1-43.55c-3.31-15.98 7.39-27.9 26.57-13.22 19.18 14.67 35.84 67.22 29.31 75.54"/><path d="m2665.5 1776.1c-6.75 5.89-23.46-15.14-29.44-23.14-6-8-11.59-27.01-12.63-41.42-1.05-14.39 9.85-22.57 25.07-6.19 15.23 16.37 23.75 64.85 17 70.75"/><path d="m2522.7 1823.4c-8.16 7.79-29.33-19.52-36.94-29.94-7.61-10.39-15.02-35.22-16.71-54.05-1.68-18.84 11.53-29.68 30.75-8.44 19.23 21.26 31.06 84.64 22.9 92.43"/><path d="m2435.4 1880.2c-19.28-4.42-50.21-51.62-61.07-68.99-10.84-17.39-15.55-45.38-11.29-61.66 4.24-16.25 34.7-7.8 64.22 32.37 29.51 40.19 27.44 102.69 8.14 98.28"/><path d="m2273.1 1899.6c-6.51 8.32-28.02-11.24-35.78-18.77-7.77-7.53-16.78-27.55-20.1-43.53s7.39-27.91 26.56-13.23 35.83 67.21 29.32 75.53"/><path d="m2211.1 1912.6c-6.51 8.31-28.01-11.23-35.78-18.77s-16.79-27.58-20.1-43.56c-3.31-15.97 7.39-27.9 26.56-13.22s35.83 67.23 29.32 75.55"/><path d="m2568 1702.3c7.52-4.29 21.5 19.67 26.45 28.74 4.95 9.04 8.08 28.69 7.26 42.9-0.84 14.2-12.8 19.85-25.91 0.71-13.12-19.16-15.32-68.07-7.8-72.35"/><path d="m2330.5 1898.2c-18.6-13.41-35.86-60.93-41.65-78.13-5.79-17.19-1.92-37.91 7.6-46.13 9.5-8.19 38.4 13.97 56.39 56.15 17.98 42.19-3.77 81.52-22.34 68.11"/><path d="m2138.2 1886.7c-6.51 8.32-28.01-11.23-35.78-18.75-7.79-7.54-16.79-27.58-20.11-43.56-3.3-15.97 7.39-27.91 26.56-13.24 19.18 14.7 35.84 67.23 29.33 75.55"/><path d="m2042.9 1900.8c-6.76 5.91-23.46-15.12-29.44-23.14-5.99-7.99-11.59-27-12.63-41.39-1.04-14.41 9.83-22.58 25.07-6.21 15.23 16.39 23.74 64.85 17 70.74"/><path d="m1945.5 1827c7.52-4.29 21.51 19.69 26.46 28.73 4.95 9.05 8.08 28.69 7.25 42.91-0.85 14.22-12.79 19.85-25.89 0.71-13.12-19.14-15.33-68.05-7.82-72.35"/><path d="m1929.5 1695.9c1.17 25.83 2.84 83.23-10.66 55.12-6.87-6.42-11.74-51.25-25.5-64.12-1.27-7.38-3.83-22.18-5.1-29.57 1.77-23.13 11.68-32.48 21.36-26.51 8.15 13.8 18.86 42.41 19.9 65.08"/><path d="m2541.4 1649c-4.43 6.28-19.61-8.91-25.12-14.75-5.5-5.84-12.01-21.24-14.49-33.46-2.5-12.22 4.79-21.2 18.31-9.76 13.5 11.42 25.73 51.7 21.3 57.97"/><path d="m2475.3 1658.5c-4.63 4.41-16.5-11.82-20.77-18.01-4.24-6.17-8.37-20.74-9.26-31.74-0.9-11.02 6.57-17.11 17.35-4.44 10.8 12.68 17.3 49.77 12.68 54.19"/><path d="m2338.3 1699.5c-4.59 9.24-21.83-28.73-28.08-43.15-6.27-14.42-14.02-47.57-17.28-72.31-3.25-24.75 4.35-37.38 19.63-7.51 15.25 29.87 30.32 113.73 25.73 122.97"/><path d="m2286.3 1763.7c-13.4-7.92-39.42-72.89-48.65-96.78-9.22-23.86-15.53-60.85-14.53-81.58 1.02-20.7 22.37-6.25 46.64 49.42 24.28 55.68 29.94 136.87 16.54 128.94"/><path d="m2179.9 1770.6c-3.42 10.11-20.02-17.8-26.07-28.49-6.05-10.7-14.34-37.8-18.37-58.99-4.01-21.2 1.81-35.53 16.28-14.24 14.5 21.3 31.56 91.61 28.16 101.72"/><path d="m2140 1780.6c-3.42 10.1-20-17.79-26.06-28.48-6.05-10.68-14.34-37.81-18.36-59.02-4.02-21.18 1.79-35.51 16.28-14.22s31.55 91.6 28.14 101.72"/><path d="m2355 1546.9c4.55-4.75 16.6 28.06 20.94 40.41 4.33 12.34 8.65 38.3 9.68 56.72 1.06 18.43-6.3 24.41-17.23-2-10.95-26.42-17.94-90.39-13.39-95.13"/><path d="m2218.2 1775.2c-13.96-19.57-30.87-83.41-36.68-106.47-5.82-23.05-5.56-49.61-0.13-59.24 5.44-9.61 27.28 22.53 44.07 79.51 16.79 56.99 6.68 105.78-7.26 86.2"/><path d="m2088.2 1738.6c-3.42 10.12-20.01-17.79-26.07-28.47-6.04-10.71-14.33-37.82-18.36-59.02-4.02-21.2 1.79-35.51 16.29-14.23 14.48 21.28 31.56 91.63 28.14 101.72"/><path d="m2026 1746.2c-3.84 6.92-17.4-22.36-22.3-33.48-4.91-11.09-10.81-36.48-13.12-55.37-2.33-18.87 4.03-28.3 16.06-5.25 12.06 23.06 23.22 87.19 19.36 94.1"/><path d="m1952.5 1639c4.55-4.73 16.61 28.09 20.95 40.44 4.33 12.33 8.64 38.28 9.69 56.72 1.05 18.42-6.31 24.42-17.25-2.01-10.93-26.43-17.94-90.4-13.39-95.15"/><path d="m3236.9 1846.4c10.25-1.38 1-15.67-3.52-20.32-4.49-4.63-43.79-35.23-48.73-33.4-4.92 1.8 14.06 31.74 21.33 40.47 7.24 8.72 20.68 14.63 30.92 13.25"/><path d="m2963.6 1976.6c10.25-1.37 0.99-15.66-3.5-20.29-4.51-4.65-43.82-35.26-48.74-33.44-4.93 1.84 14.05 31.76 21.31 40.49s20.69 14.64 30.93 13.24"/><path d="m3162.2 1922.5c10.25-1.39 0.99-15.67-3.52-20.32-4.51-4.64-43.82-35.24-48.74-33.41-4.92 1.82 14.06 31.76 21.32 40.47 7.26 8.73 20.68 14.63 30.94 13.26"/><path d="m3095.4 1926.3c10.24-1.39 1.01-15.69-3.5-20.31-4.52-4.65-43.81-35.24-48.74-33.42-4.93 1.81 14.06 31.76 21.31 40.47 7.27 8.73 20.69 14.64 30.93 13.26"/><path d="m2893.3 1997.3c9.22-1.24 0.89-14.12-3.16-18.29-4.07-4.18-39.44-31.71-43.87-30.08-4.43 1.64 12.66 28.59 19.18 36.44 6.54 7.84 18.61 13.17 27.85 11.93"/><path d="m3070.3 1552.8c-8.27-1.76 2.35-16.72 14.59-17.54 12.25-0.8 42.99-4.16 42.99-4.16s-20.12 11.98-25.82 12.94c-5.7 0.99-28.37 9.49-31.76 8.76"/><path d="m2954.6 1513.4c-5.18 3.83-13.71 3.69-20.9 3.61-7.19-0.06-3.96-7.78 9.01-11.99 12.98-4.2 19.83-6.04 25.97-4.47 6.14 1.54-8.3 8.6-14.08 12.85"/><path d="m1753.5 1748.4c-7.21-10.67-28.16-15.04-28.04-22.37 0.13-7.32 36.78-9.9 42.17 16.59 5.4 26.48-14.4 42.95-19.8 42.16 6.95-10.01 12.86-25.72 5.67-36.38"/><path d="m1711.2 1798.4c-10.19-7.87-31.46-5.44-33.63-12.45-2.17-7 31.81-20.94 45.25 2.53 13.43 23.44-0.21 45.28-5.58 46.24 3.46-11.7 4.15-28.45-6.04-36.32"/></g><path d="m1235.2 1931.5c-4.29-24.87 14.43-48.86 41.82-53.6 27.39-4.73 53.08 11.59 57.38 36.47 4.3 24.87-14.43 48.86-41.82 53.59-27.39 4.75-53.08-11.58-57.38-36.46" fill="#231f20"/><g fill="#fff"><path d="m3730.6 2134.1c19.12 6.35-28.25 64.77-55.69 48.7-27.46-16.06-78.27-79.6-85.74-103.28-7.46-23.69 35.99 33.29 76.87 51.85 40.88 18.55 45.47-3.62 64.56 2.73"/><path d="m3796.2 1926.7c11.72 2.56-15.23 40.14-32.25 32.34-17.03-7.79-49.49-42.21-54.66-55.77-5.18-13.56 22.66 17.45 47.86 25.87s27.33-5 39.05-2.44"/><path d="m3803.1 1885.4c9.95 1.38-11.74 34.56-26.32 29.14-14.57-5.43-42.92-32.16-47.66-43.15-4.73-11.02 19.6 13.13 41.11 18.57 21.49 5.41 22.92-5.95 32.87-4.56"/><path d="m3093.6 1866.8c10.26-1.39 1.02-15.67-3.49-20.32-4.51-4.64-43.81-35.23-48.75-33.41-4.92 1.81 14.06 31.75 21.33 40.49 7.24 8.71 20.67 14.62 30.91 13.24"/><path d="m3023.1 1839.2c10.24-1.39 0.99-15.67-3.52-20.31-4.51-4.65-43.81-35.24-48.73-33.42-4.93 1.82 14.04 31.76 21.31 40.48 7.26 8.72 20.68 14.63 30.94 13.25"/><path d="m3035.4 1948.2c10.23-1.38 1-15.67-3.52-20.32-4.51-4.64-43.8-35.23-48.73-33.41-4.94 1.81 14.05 31.75 21.31 40.47 7.26 8.73 20.69 14.64 30.94 13.26"/><path d="m2961.3 1918c10.23-1.39 1-15.67-3.52-20.32-4.51-4.63-43.8-35.23-48.73-33.41-4.93 1.81 14.05 31.75 21.31 40.48 7.27 8.72 20.69 14.63 30.94 13.25"/><path d="m2898.2 1895.7c10.24-1.38 1-15.66-3.51-20.31s-43.81-35.23-48.73-33.42c-4.93 1.82 14.05 31.76 21.31 40.48s20.68 14.62 30.93 13.25"/><path d="m2885.1 1946.6c10.24-1.39 1-15.68-3.51-20.32s-43.81-35.24-48.75-33.41c-4.92 1.82 14.07 31.75 21.33 40.47 7.26 8.73 20.68 14.63 30.93 13.26"/><path d="m2814.6 1923.9c10.24-1.39 1.01-15.68-3.51-20.32-4.53-4.63-43.81-35.23-48.75-33.42-4.92 1.81 14.07 31.77 21.31 40.48 7.28 8.72 20.7 14.63 30.95 13.26"/><path d="m2831.7 1877.1c10.23-1.39 1-15.68-3.52-20.31-4.51-4.65-43.8-35.24-48.73-33.43-4.94 1.82 14.05 31.77 21.31 40.49 7.26 8.71 20.69 14.63 30.94 13.25"/><path d="m2894.1 1568.9c-7.04-10.51 5.46 12.75 24.11 3.67 18.66-9.1 56.14-33.84 56.14-33.84s-31.51-1.08-43.66 0.36c-12.13 1.44-36.59 29.81-36.59 29.81"/><path d="m3116 1623c-7.04-10.53 5.46 12.75 24.1 3.65 18.66-9.09 56.14-33.84 56.14-33.84s-31.5-1.06-43.64 0.36c-12.15 1.46-36.6 29.83-36.6 29.83"/><path d="m3028.7 1543.3c-5.17 3.81-13.7 3.69-20.89 3.61-7.2-0.06-3.96-7.8 9.01-12s19.83-6.03 25.97-4.48-8.3 8.61-14.09 12.87"/><path d="m3073.4 1623.2c-5.18 3.79-13.72 3.68-20.91 3.61s-3.95-7.81 9.01-12c12.98-4.2 19.84-6.04 25.99-4.49 6.13 1.56-8.3 8.63-14.09 12.88"/><path d="m3069.8 1518.3c-5.17 3.81-13.71 3.69-20.89 3.61-7.19-0.05-3.95-7.8 9.02-12 12.97-4.19 19.82-6.03 25.97-4.48 6.14 1.55-8.3 8.6-14.1 12.87"/><path d="m3134 1513.7c-5.17 3.81-13.71 3.68-20.89 3.61-7.19-0.05-3.97-7.8 9.01-12 12.98-4.19 19.83-6.02 25.98-4.48 6.14 1.54-8.3 8.62-14.1 12.87"/><path d="m3144.2 1563.9c-5.18 3.82-13.71 3.68-20.89 3.61-7.2-0.07-3.97-7.8 9-11.98 12.97-4.2 19.83-6.05 25.98-4.5 6.13 1.55-8.3 8.62-14.09 12.87"/><path d="m1694.6 1964.6c2.52-12.6-9.09-30.6-3.79-35.65 5.31-5.05 32.89 19.2 17.84 41.65-15.05 22.47-40.68 19.94-43.92 15.55 12.01-2.1 27.34-8.91 29.87-21.55"/><path d="m1760.2 1867c-3.48-12.38-22.02-23.11-19.59-30.04 2.41-6.91 38.02 2.15 34.83 29-3.19 26.84-27.15 36.25-32.04 33.82 9.74-7.34 20.29-20.38 16.8-32.78"/><path d="m1661.2 1801.1c-7.21-10.67-28.16-15.04-28.03-22.37 0.14-7.32 36.78-9.89 42.16 16.6 5.4 26.47-14.4 42.93-19.8 42.16 6.96-10.03 12.86-25.72 5.67-36.39"/><path d="m1645.8 1940c-1.56-12.78-18.23-26.22-14.79-32.68 3.46-6.47 37.26 7.92 30.01 33.96-7.24 26.04-32.36 31.68-36.82 28.54 10.75-5.77 23.15-17.05 21.6-29.82"/><path d="m1571.4 1655.7c-1.97-11.4-14.04-13.24-19.15-20.18 22.81-3.94 39.46 24.49 39.6 47.96-12.06-1.84-18.48-16.39-20.45-27.78"/><path d="m1708.1 1650c-7.21-10.66-28.16-15.04-28.04-22.36 0.13-7.34 36.78-9.9 42.17 16.59 5.4 26.47-14.4 42.93-19.8 42.17 6.94-10.04 12.87-25.73 5.67-36.4"/><path d="m1601.5 1778.4c-10.19-7.87-31.46-5.45-33.63-12.44-2.17-7.01 31.81-20.94 45.25 2.52 13.43 23.45-0.21 45.29-5.58 46.25 3.45-11.7 4.14-28.46-6.04-36.33"/><path d="m1620.1 1697.6c2.53-12.62-9.07-30.61-3.78-35.67 5.31-5.06 32.89 19.2 17.85 41.65-15.06 22.46-40.68 19.95-43.92 15.56 12.01-2.11 27.33-8.93 29.85-21.54"/><path d="m1770 1964.5c-3.5-12.38-22.02-23.11-19.61-30.03 2.42-6.91 38.03 2.14 34.84 28.99-3.18 26.83-27.15 36.25-32.04 33.83 9.75-7.35 20.29-20.4 16.81-32.79"/><path d="m1638.7 1875.9c-7.22-10.67-28.17-15.04-28.04-22.36 0.14-7.34 36.78-9.91 42.16 16.58 5.4 26.48-14.4 42.95-19.8 42.17 6.96-10.02 12.86-25.72 5.68-36.39"/></g><path d="m2446.9 4170.7c-1760 26.7-1763.5-1786-1763.5-1786 103.5 4.31 396.86 122.68 863.52 129.35 466.66 6.66 831.66-128.34 1301.7-133.34 470-5 610 150 1315 105-5 5 43.33 1658.3-1716.7 1685" fill="#231f20"/><path d="m2446.9 4170.7c-1760 26.7-1763.5-1786-1763.5-1786 103.5 4.31 396.86 122.68 863.52 129.35 466.66 6.66 831.66-128.34 1301.7-133.34 470-5 610 150 1315 105-5 5 43.33 1658.3-1716.7 1685z" stroke="#231f20" stroke-width="10" fill="none"/><path d="m3552.6 2849.4c127.81-21.18 147-47.25 230.99-55.13 84.01-7.87 120.76 2.63 175.88-21 55.13-23.62 90.81-111.42 66.94-110.25-96.09 4.73-253.31 23.62-458.06-7.87-204.76-31.5-268.83-0.01-393.75-21.01 52.74 55.89 109.54 95.03 144.38 189.01 97.11 23.62 105.81 47.43 233.62 26.25" fill="#fff"/><path d="m1345.7 3198.7c68.25 23.63 178.5 7.88 233.63-21 55.12-28.87 215.24-15.75 346.49-110.25s249.38-68.25 367.5-78.75c118.13-10.5 202.13-110.25 223.13-110.25 49.95 33.31 132.93 68.1 176.69 179.1 2.47 6.26-2.29-6.85 0 0 8.34 24.77 9.4 63.28 14.94 96.53 34.13 204.75 294 254.62 414.75 225.75 120.74-28.88 286.12-141.75 244.12-312.38-8.86-36.01-21.88-65.68-30.25-93.09-31.25-102.41-76.5-182.53-104.49-224.53-28.01-42-127.76-169.75-222.26-173.25-94.5-3.51-118.12 23.62-191.62 70.87-73.51 47.25-125.5 225.73-115.5 223.13 9.99-2.61-14.88-85.75 62.12-215.25-105-10.5-258.99-47.25-382.37-55.13-123.38-7.87-204.75 47.25-238.88 57.75s-63-22.38-236.25-0.69-273 84.69-346.5 137.19c-67.65 48.32-130.93 114.68-142.9 128.22-11.97 13.53-14.59 44.15-13.72 31.9 0.87-12.24-5.44-24.62-9.41-38.06-3.97-13.43-45.69-67.69-99.97-124.68-52.5-55.13-46.22-59.59-83.94-97.31-99.74-34.13-228.37-34.13-417.37-86.63 84 105 216.06 287.55 284.31 374.86 68.25 87.33 199.5 192.33 267.75 215.95" fill="#fff"/><g stroke="#231f20" stroke-linecap="round" stroke-width="30" fill="none"><path d="m2697.8 3101.2s83.82-83.58 158.63-35.02 133.87 55.12 254.62 27.56c120.76-27.56 211.19-169.96 211.19-169.96"/><g stroke-linejoin="round"><path d="m2959.1 3004.6c30-5 98.75-32.5 121.25-85"/><path d="m3135.3 2892.1c37.5 18.75 107.5 16.25 137.5 0"/><path d="m3088.5 2836.2c0.1-0.75-6.33-101.99-14.42-112.07-8.08-10.07-43.29 12.73-43.29 17.83"/></g></g><path d="m2955.3 2932.2s33.5-1.73 59.5-14.48c26.01-12.75 29.03-26.83 27.02-40.91-2.02-14.1-23.02-5.23-52.32 8.44-29.29 13.67-34.2 46.95-34.2 46.95" fill="#231f20"/><path stroke-linejoin="round" d="m2955.3 2932.2s33.5-1.73 59.5-14.48c26.01-12.75 29.03-26.83 27.02-40.91-2.02-14.1-23.02-5.23-52.32 8.44-29.29 13.67-34.2 46.95-34.2 46.95z" stroke="#231f20" stroke-linecap="round" stroke-width="30" fill="none"/><path d="m2905.6 2674.6c-3.95 14.99 61.34 11.62 76.5-0.78 15.15-12.4 72.26-31.12 68.86-40-3.4-8.9-26.27-20.72-64.13-13.64-37.86 7.11-77.29 39.45-81.23 54.42" fill="#231f20"/><path d="m2905.6 2674.6c-3.95 14.99 61.34 11.62 76.5-0.78 15.15-12.4 72.26-31.12 68.86-40-3.4-8.9-26.27-20.72-64.13-13.64-37.86 7.11-77.29 39.45-81.23 54.42z" stroke="#231f20" stroke-width="30" fill="none"/><path d="m3236.3 2830.1s-29.05-13.45-56.7-14.23c-27.64-0.8-36.45 9.76-41.02 22.54-4.55 12.79 17.12 14.65 47.95 16.13 30.82 1.48 49.77-24.44 49.77-24.44" fill="#231f20"/><path stroke-linejoin="round" d="m3236.3 2830.1s-29.05-13.45-56.7-14.23c-27.64-0.8-36.45 9.76-41.02 22.54-4.55 12.79 17.12 14.65 47.95 16.13 30.82 1.48 49.77-24.44 49.77-24.44z" stroke="#231f20" stroke-linecap="round" stroke-width="30" fill="none"/><path d="m447.63 1271.1-49.774 74.15 291.16 147.32c50.906 25.8 87.566 22.02 109.97-11.36 22.399-33.37 19.621-64.95-8.339-94.72l-133.91-141.53 0.637-0.96 181.28 70.97c37.985 14.85 68.282 5.42 90.899-28.27 22.402-33.38 11.98-68.69-31.246-105.94l-247.01-213.07-50.88 75.77 242.9 196.6-281.23-100.3c-9.777-3.3-17.582-3.68-23.442-1.14-5.867 2.56-11.894 8.45-18.101 17.7-7.496 11.16-10.563 20.21-9.215 27.12 0.82 5.63 4.051 11.49 9.652 17.56l203.2 216.53-0.637 0.96-275.92-147.35" fill="#fff"/><path d="m447.63 1271.1-49.774 74.15 291.16 147.32c50.906 25.8 87.566 22.02 109.97-11.36 22.399-33.37 19.621-64.95-8.339-94.72l-133.91-141.53 0.637-0.96 181.28 70.97c37.985 14.85 68.282 5.42 90.899-28.27 22.402-33.38 11.98-68.69-31.246-105.94l-247.01-213.07-50.88 75.77 242.9 196.6-281.23-100.3c-9.777-3.3-17.582-3.68-23.442-1.14-5.867 2.56-11.894 8.45-18.101 17.7-7.496 11.16-10.563 20.21-9.215 27.12 0.82 5.63 4.051 11.49 9.652 17.56l203.2 216.53-0.637 0.96z" stroke="#fff" stroke-width="9.9" fill="none"/><path d="m828.71 790.74-59.352 60.012 285.81 282.62 59.35-60.02-285.81-282.61" fill="#fff"/><path d="m828.71 790.74-59.352 60.012 285.81 282.62 59.35-60.02z" stroke="#fff" stroke-width="9.9" fill="none"/><path d="m1033.6 612.21-68.537 49.258 234.29 326.6 116.36-83.64c35.69-25.641 58.46-63.711 68.35-114.18 11.01-57.418-1.22-110.86-36.7-160.31-33.69-46.972-76.74-74.371-129.11-82.222-52.38-7.84-100.74 4.172-145.07 36.043l-19.53 14.039 46.86 65.32 19.58-14.082c24.25-17.43 52.78-22.617 85.64-15.578 31.54 6.539 56.02 21.949 73.43 46.219 22.31 31.09 30.17 63.16 23.6 96.172-6.45 30.558-24.02 56.16-52.72 76.789l-29.01 20.847-187.43-261.28" fill="#fff"/><path d="m1033.6 612.21-68.537 49.258 234.29 326.6 116.36-83.64c35.69-25.641 58.46-63.711 68.35-114.18 11.01-57.418-1.22-110.86-36.7-160.31-33.69-46.972-76.74-74.371-129.11-82.222-52.38-7.84-100.74 4.172-145.07 36.043l-19.53 14.039 46.86 65.32 19.58-14.082c24.25-17.43 52.78-22.617 85.64-15.578 31.54 6.539 56.02 21.949 73.43 46.219 22.31 31.09 30.17 63.16 23.6 96.172-6.45 30.558-24.02 56.16-52.72 76.789l-29.01 20.847z" stroke="#fff" stroke-width="9.9" fill="none"/><path d="m1458.3 354.08-77.56 33.289 158.36 369.44 131.68-56.539c40.38-17.329 70.83-49.579 91.37-96.719 23.14-53.672 22.72-108.47-1.26-164.42-22.77-53.117-58.9-89.168-108.36-108.13-49.46-18.98-99.27-17.691-149.44 3.852l-22.1 9.488 31.67 73.879 22.16-9.508c27.44-11.781 56.43-10.691 86.99 3.269 29.4 13.211 49.98 33.54 61.75 60.981 15.08 35.168 15.84 68.18 2.3 98.98-12.89 28.45-35.57 49.641-68.04 63.59l-32.83 14.09-126.69-295.54" fill="#fff"/><path d="m1458.3 354.08-77.56 33.289 158.36 369.44 131.68-56.539c40.38-17.329 70.83-49.579 91.37-96.719 23.14-53.672 22.72-108.47-1.26-164.42-22.77-53.117-58.9-89.168-108.36-108.13-49.46-18.98-99.27-17.691-149.44 3.852l-22.1 9.488 31.67 73.879 22.16-9.508c27.44-11.781 56.43-10.691 86.99 3.269 29.4 13.211 49.98 33.54 61.75 60.981 15.08 35.168 15.84 68.18 2.3 98.98-12.89 28.45-35.57 49.641-68.04 63.59l-32.83 14.09z" stroke="#fff" stroke-width="9.9" fill="none"/><path d="m2148.5 559.55-16.66-78.641-50.57 10.649c-29.22 6.152-54.88 2.371-76.95-11.36-18.91-11.668-32.54-27.969-40.88-48.898l151.14-31.84-15.47-73.02-151.14 31.829c-0.86-22.508 4.99-42.918 17.56-61.2 14.62-21.468 36.55-35.281 65.76-41.441l50.57-10.649-16.66-78.64-43.27 9.109c-62.93 13.262-107.6 44.383-133.99 93.371-23.11 42.418-28.98 90.399-17.64 143.95 11.35 53.562 36.22 95.261 74.63 125.12 43.93 33.769 97.37 44.031 160.3 30.769l43.27-9.109" fill="#fff"/><path d="m2148.5 559.55-16.66-78.641-50.57 10.649c-29.22 6.152-54.88 2.371-76.95-11.36-18.91-11.668-32.54-27.969-40.88-48.898l151.14-31.84-15.47-73.02-151.14 31.829c-0.86-22.508 4.99-42.918 17.56-61.2 14.62-21.468 36.55-35.281 65.76-41.441l50.57-10.649-16.66-78.64-43.27 9.109c-62.93 13.262-107.6 44.383-133.99 93.371-23.11 42.418-28.98 90.399-17.64 143.95 11.35 53.562 36.22 95.261 74.63 125.12 43.93 33.769 97.37 44.031 160.3 30.769z" stroke="#fff" stroke-width="9.9" fill="none"/><path d="m2258.9 548.43 84.31-3.91-12.72-269.57c-0.83-17.59 2.14-29.988 8.93-37.199s17.68-11.168 32.67-11.859l64.01-2.969-4.01-84.883-84.31 3.902c-71.9 3.329-105.94 45.149-102.15 125.44l13.27 281.05" fill="#fff"/><path d="m2258.9 548.43 84.31-3.91-12.72-269.57c-0.83-17.59 2.14-29.988 8.93-37.199s17.68-11.168 32.67-11.859l64.01-2.969-4.01-84.883-84.31 3.902c-71.9 3.329-105.94 45.149-102.15 125.44z" stroke="#fff" stroke-width="9.9" fill="none"/><path d="m2624.4 148.48-83.91-9.16-44.15 399.5 83.9 9.16 15.9-143.82 109.03 11.891-15.89 143.83 83.9 9.152 44.15-399.5-83.9-9.16-19.43 175.78l-109.1-11.89 19.4-175.78" fill="#fff"/><path d="m2624.4 148.48-83.91-9.16-44.15 399.5 83.9 9.16 15.9-143.82 109.03 11.891-15.89 143.83 83.9 9.152 44.15-399.5-83.9-9.16-19.43 175.78l-109.1-11.89z" stroke="#fff" stroke-width="9.9" fill="none"/><path d="m3081.1 234.74-85.21-27.594-80.7 249.09c-12.27 37.871-12.15 72.91 0.35 105.13 15.09 37.871 45.57 64.238 91.46 79.09 45.89 14.848 86.06 11.359 120.5-10.481 29.38-18.66 50.21-46.921 62.47-84.789l80.7-249.1-85.22-27.578-44.6 137.65-83.03-26.871-24.07 74.281 83.04 26.879-16.63 51.352c-11.1 34.23-34.12 45.687-69.09 34.371-34.6-11.203-46.34-33.91-35.26-68.141l85.29-263.29" fill="#fff"/><path d="m3081.1 234.74-85.21-27.594-80.7 249.09c-12.27 37.871-12.15 72.91 0.35 105.13 15.09 37.871 45.57 64.238 91.46 79.09 45.89 14.848 86.06 11.359 120.5-10.481 29.38-18.66 50.21-46.921 62.47-84.789l80.7-249.1-85.22-27.578-44.6 137.65-83.03-26.871-24.07 74.281 83.04 26.879-16.63 51.352c-11.1 34.23-34.12 45.687-69.09 34.371-34.6-11.203-46.34-33.91-35.26-68.141z" stroke="#fff" stroke-width="9.9" fill="none"/><path d="m3505.2 409.25-73.65-41.258-134.46 240.58c-17.56 31.41-23.3 62.43-17.22 93.039 7.47 37.532 32.87 68.43 76.19 92.711 33.32 18.672 66.14 22.571 98.45 11.719 29.21-9.969 51.47-28.66 66.78-56.051 19.43-34.758 18.6-67.019-2.45-96.816 24.12 3.418 43.04 0.637 56.75-8.352 11.6-7.539 23.65-22.519 36.16-44.898l55.75-99.731-73.64-41.261-55.47 99.23c-14.94 26.731-35.61 32.711-61.98 17.93l-28.06-15.711-36.42 65.16c41.74 23.391 54.97 48.781 39.65 76.18-7.28 13.031-16.97 20.871-29.05 23.543-12.08 2.668-23.99 0.707-35.75-5.883s-19.67-15.738-23.71-27.438c-4.05-11.699-2.43-24.062 4.85-37.101l137.28-245.59" fill="#fff"/><path d="m3505.2 409.25-73.65-41.258-134.46 240.58c-17.56 31.41-23.3 62.43-17.22 93.039 7.47 37.532 32.87 68.43 76.19 92.711 33.32 18.672 66.14 22.571 98.45 11.719 29.21-9.969 51.47-28.66 66.78-56.051 19.43-34.758 18.6-67.019-2.45-96.816 24.12 3.418 43.04 0.637 56.75-8.352 11.6-7.539 23.65-22.519 36.16-44.898l55.75-99.731-73.64-41.261-55.47 99.23c-14.94 26.731-35.61 32.711-61.98 17.93l-28.06-15.711-36.42 65.16c41.74 23.391 54.97 48.781 39.65 76.18-7.28 13.031-16.97 20.871-29.05 23.543-12.08 2.668-23.99 0.707-35.75-5.883s-19.67-15.738-23.71-27.438c-4.05-11.699-2.43-24.062 4.85-37.101z" stroke="#fff" stroke-width="9.9" fill="none"/><path d="m3869.6 650.47-63.81-55.258-229.15 264.91c-11.27 13.02-16.5 27.109-15.67 42.25 0.81 15.141 8.02 28.598 21.63 40.379 22.56 19.539 53.72 20.691 93.44 3.441l209.53-91.25 1.29 1.129-168.67 194.98 63.81 55.26 229.53-265.33c25.3-29.25 25.94-54.269 1.92-75.058-12.45-10.781-26.24-15.891-41.4-15.34-11.88 0.848-28.73 6-50.57 15.457l-239.6 103.18-0.11-1.617 187.83-217.13" fill="#fff"/><path d="m3869.6 650.47-63.81-55.258-229.15 264.91c-11.27 13.02-16.5 27.109-15.67 42.25 0.81 15.141 8.02 28.598 21.63 40.379 22.56 19.539 53.72 20.691 93.44 3.441l209.53-91.25 1.29 1.129-168.67 194.98 63.81 55.26 229.53-265.33c25.3-29.25 25.94-54.269 1.92-75.058-12.45-10.781-26.24-15.891-41.4-15.34-11.88 0.848-28.73 6-50.57 15.457l-239.6 103.18-0.11-1.617z" stroke="#fff" stroke-width="9.9" fill="none"/><path d="m4221.7 1007.3-53.7-65.118-310.29 255.5 53.71 65.12 310.28-255.5" fill="#fff"/><path d="m4221.7 1007.3-53.7-65.118-310.29 255.5 53.71 65.12z" stroke="#fff" stroke-width="9.9" fill="none"/><path d="m4102.3 1551.8 63.98-38.46-59.26-98.36c-10.27-17.06-6.72-30.81 10.68-41.26 7.87-4.73 27.28-0.32 58.24 13.23 45.22 20.16 74.86 32.27 88.92 36.33 36.21 10.39 64.64 9.38 85.32-3.04 28.54-17.15 47.94-38.01 58.17-62.55 12.31-30.76 8.06-63.41-12.78-97.99l-69.66-115.63-68.9 41.41 68.64 113.94c3.99 6.61 4.97 13.43 2.96 20.49-2 7.05-6.61 12.76-13.83 17.09-9.18 5.52-29.1 1.41-59.72-12.33-44.37-20.24-74.01-32.35-88.93-36.33-37.18-9.81-68.25-7.22-93.18 7.77-29.53 17.75-47.2 41.09-53 70.03-4.56 25.07-0.22 48.6 13.02 70.57l69.33 115.09" fill="#fff"/><path d="m4102.3 1551.8 63.98-38.46-59.26-98.36c-10.27-17.06-6.72-30.81 10.68-41.26 7.87-4.73 27.28-0.32 58.24 13.23 45.22 20.16 74.86 32.27 88.92 36.33 36.21 10.39 64.64 9.38 85.32-3.04 28.54-17.15 47.94-38.01 58.17-62.55 12.31-30.76 8.06-63.41-12.78-97.99l-69.66-115.63-68.9 41.41 68.64 113.94c3.99 6.61 4.97 13.43 2.96 20.49-2 7.05-6.61 12.76-13.83 17.09-9.18 5.52-29.1 1.41-59.72-12.33-44.37-20.24-74.01-32.35-88.93-36.33-37.18-9.81-68.25-7.22-93.18 7.77-29.53 17.75-47.2 41.09-53 70.03-4.56 25.07-0.22 48.6 13.02 70.57z" stroke="#fff" stroke-width="9.9" fill="none"/><path d="m353.96 2422.7c0 1147.6 944.56 2077.9 2061.1 2077.9 1144 0 2085.7-933.23 2085.7-2080.8" stroke="#fff" stroke-width="598.5" fill="none"/><g fill="#231f20"><path d="m865.02 3583.2 69.32-44.32-122.72-191.49c-6.976-10.88-16.687-17.7-29.148-20.43-12.453-2.74-22.965-1.36-31.555 4.13-17.828 11.4-30.414 24.79-37.766 40.19l-118.88 246.91-74.52-116.28-69.32 44.32 106.54 166.26c7.183 11.21 17.66 18.11 31.425 20.71 13.766 2.59 26.422 0.2 37.973-7.18 10.891-6.97 21.988-21.98 33.285-45l115.94-237.35 89.418 139.53"/><path d="m808.42 4020.2 61.859-54.25-41.867-47.7c-19.129-21.8-25.871-49.23-20.238-82.31 5.637-33.08 19.793-59.57 42.472-79.46 22.688-19.89 50.446-30.43 83.293-31.61 34.247-1.38 60.926 8.84 80.059 30.63l41.87 47.7 61.86-54.24-44.97-51.24c-34.12-38.87-77.721-60.04-130.81-63.51-56.113-3.94-106.71 13.85-151.78 53.37-45.074 39.52-69.449 87.48-73.137 143.86-3.168 52.81 12.301 98.65 46.418 137.52l44.969 51.24"/><path d="m1341.9 3934.3-72.06-47.64-226.54 343.4 122.35 80.88c37.51 24.81 82.18 32.74 134 23.79 58.88-10.39 105.46-41.59 139.76-93.59 32.58-49.39 43.06-100.59 31.44-153.58-11.6-53.01-40.72-94.92-87.33-125.74l-20.54-13.58-45.3 68.68 20.59 13.61c25.49 16.86 40.86 42.28 46.12 76.3 5.25 32.59-0.53 61.64-17.36 87.15-21.58 32.7-49.34 51.93-83.27 57.67-31.55 4.97-62.41-2.51-92.59-22.46l-30.5-20.17 181.23-274.72"/><path d="m1627.1 4551.8 32.9-75.41-48.46-21.18c-28.01-12.24-47.13-30.65-57.35-55.2-8.81-20.96-10.47-42.64-4.97-65.04l144.86 63.32 30.56-70.03-144.87-63.31c12.68-19.26 29.7-32.78 51.04-40.55 24.95-9.2 51.44-7.66 79.44 4.57l48.47 21.19 32.9-75.41-41.46-18.13c-60.32-26.36-116.05-26.98-167.19-1.87-44.48 21.61-77.92 58.09-100.33 109.44-22.4 51.35-26.49 100.87-12.25 148.58 16.51 54.24 54.93 94.56 115.24 120.91l41.47 18.12"/><path d="m2165.6 4681.5 12.54-75.37-115.98-19.13c-20.1-3.32-28.44-15.22-25.04-35.7 1.55-9.28 17.88-21.47 48.99-36.59 45.73-21.85 74.85-36.9 87.34-45.15 32.15-21.31 50.24-44.13 54.3-68.48 5.59-33.63 2.22-62.58-10.1-86.84-15.76-30-44.03-48.37-84.8-55.09l-136.32-22.49-13.5 81.16 134.34 22.16c7.78 1.29 13.75 5.04 17.92 11.29 4.15 6.25 5.53 13.62 4.12 22.13-1.8 10.82-18.23 23.59-49.28 38.33-45.22 21.13-74.33 36.18-87.34 45.15-32.33 22.46-50.95 48.38-55.84 77.75-5.78 34.79 0.67 64.04 19.36 87.78 16.5 20.19 37.69 32.43 63.6 36.7l135.69 22.39"/><path d="m2529.7 4695.6 1.1-82.27-63.47-1.03c-28.99-0.47-53.88-13.91-74.68-40.3-20.81-26.4-31-54.68-30.6-84.84 0.4-30.18 11.15-57.82 32.26-82.94 21.9-26.3 47.35-39.2 76.34-38.73l63.46 1.03 1.11-82.28-68.16-1.1c-51.71-0.84-96.63 17.24-134.74 54.24-40.49 38.91-61.13 88.35-61.94 148.29s18.5 110.21 57.93 150.83c37.1 37.82 81.51 57.15 133.22 57.99l68.17 1.11"/><path d="m2652 4269.7-85.42 12.9 61.99 406.69 85.42-12.9-22.32-146.41 111-16.76 22.31 146.41 85.42-12.89-61.98-406.7-85.42 12.9 27.27 178.95-110.99 16.75-27.28-178.94"/><path d="m3180.3 4483.4c-35.05 12.82-67.82 11.25-98.32-4.71-28.63-15.4-49.06-39.84-61.31-73.31-12.24-33.49-12.4-65.35-0.45-95.58 13-31.88 37.03-54.23 72.08-67.05 35.03-12.82 67.81-11.26 98.33 4.71 28.62 15.39 49.06 39.83 61.3 73.32 12.24 33.47 12.4 65.34 0.46 95.57-13.02 31.88-37.05 54.23-72.09 67.05zm29.08 79.48c56.58-20.7 96.59-57.66 120.04-110.88 22.61-52.07 23.83-105.71 3.65-160.91-20.19-55.19-55.73-95.38-106.59-120.58-52.25-25.53-106.66-27.94-163.25-7.24s-96.39 57.38-119.42 110.02c-23.04 52.64-24.45 106.58-4.27 161.76 20.19 55.2 56.06 95.48 107.62 120.84 51.55 25.35 105.62 27.69 162.22 6.99"/><path d="m3328.3 4050.3 166.14 284.09-77.06 45.18 41.54 71.03 229.16-134.35-41.54-71.02-77.56 45.47-166.16-284.1-74.52 43.7"/><path d="m3934.6 4125-51.3-64.32-41.33 33.01c-23.87 19.08-49.06 27.4-75.53 24.99-22.64-1.98-42.57-10.63-59.8-25.95l123.53-98.67-47.65-59.73-123.52 98.67c-11.12-20.21-15.12-41.58-12.04-64.11 3.52-26.37 17.22-49.09 41.1-68.17l41.32-33.01-51.3-64.32-35.36 28.24c-51.43 41.08-77.97 90.12-79.62 147.1-1.65 49.45 14.99 96.08 49.93 139.88 34.93 43.8 76.79 70.53 125.59 80.19 55.65 10.72 109.19-4.47 160.63-45.55l35.35-28.25"/><path d="m3699.7 3781.7 62.6 60.38c20.13-20.86 36.56-31.83 49.29-32.89 12.73-1.07 28.12 7.1 46.16 24.51l188.27 181.53 59.98-62.18-187-180.31c-42.59-41.06-81-59.94-115.23-56.61-30.1 2.97-64.79 24.83-104.07 65.57"/><path d="m3916.9 3536.2-53.33 67.96 323.84 253.71 53.33-67.97-323.84-253.7"/><path d="m4313.8 3689.2 45.6-73.38-234.76-145.55c-15.31-9.5-24.05-19.2-26.19-29.1-2.15-9.91 0.83-21.39 8.94-34.44l34.62-55.7-73.92-45.83-45.61 73.37c-38.89 62.57-23.36 115.52 46.57 158.88l244.75 151.75"/></g></g></g></svg>
